<svg xmlns="http://www.w3.org/2000/svg" width="327" height="36" viewBox="0 0 109 12" role="img" aria-label="Manish left the game"><title>Manish left the game</title><rect width="109" height="12" fill="#16171a"/><g shape-rendering="crispEdges"><path d="M3 2h1v1h-1zM7 2h1v1h-1zM3 3h2v1h-2zM6 3h2v1h-2zM3 4h1v1h-1zM5 4h1v1h-1zM7 4h1v1h-1zM3 5h1v1h-1zM7 5h1v1h-1zM3 6h1v1h-1zM7 6h1v1h-1zM3 7h1v1h-1zM7 7h1v1h-1zM3 8h1v1h-1zM7 8h1v1h-1zM10 4h3v1h-3zM13 5h1v1h-1zM10 6h4v1h-4zM9 7h1v1h-1zM13 7h1v1h-1zM10 8h4v1h-4zM15 4h4v1h-4zM15 5h1v1h-1zM19 5h1v1h-1zM15 6h1v1h-1zM19 6h1v1h-1zM15 7h1v1h-1zM19 7h1v1h-1zM15 8h1v1h-1zM19 8h1v1h-1zM21 2h1v1h-1zM21 4h1v1h-1zM21 5h1v1h-1zM21 6h1v1h-1zM21 7h1v1h-1zM21 8h1v1h-1zM24 4h4v1h-4zM23 5h1v1h-1zM24 6h3v1h-3zM27 7h1v1h-1zM23 8h4v1h-4zM29 2h1v1h-1zM29 3h1v1h-1zM29 4h4v1h-4zM29 5h1v1h-1zM33 5h1v1h-1zM29 6h1v1h-1zM33 6h1v1h-1zM29 7h1v1h-1zM33 7h1v1h-1zM29 8h1v1h-1zM33 8h1v1h-1zM39 2h1v1h-1zM39 3h1v1h-1zM39 4h1v1h-1zM39 5h1v1h-1zM39 6h1v1h-1zM39 7h1v1h-1zM40 8h1v1h-1zM43 4h3v1h-3zM42 5h1v1h-1zM46 5h1v1h-1zM42 6h5v1h-5zM42 7h1v1h-1zM43 8h3v1h-3zM50 2h2v1h-2zM49 3h1v1h-1zM48 4h3v1h-3zM49 5h1v1h-1zM49 6h1v1h-1zM49 7h1v1h-1zM49 8h1v1h-1zM54 2h1v1h-1zM54 3h1v1h-1zM53 4h4v1h-4zM54 5h1v1h-1zM54 6h1v1h-1zM54 7h1v1h-1zM55 8h2v1h-2zM63 2h1v1h-1zM63 3h1v1h-1zM62 4h4v1h-4zM63 5h1v1h-1zM63 6h1v1h-1zM63 7h1v1h-1zM64 8h2v1h-2zM67 2h1v1h-1zM67 3h1v1h-1zM67 4h4v1h-4zM67 5h1v1h-1zM71 5h1v1h-1zM67 6h1v1h-1zM71 6h1v1h-1zM67 7h1v1h-1zM71 7h1v1h-1zM67 8h1v1h-1zM71 8h1v1h-1zM74 4h3v1h-3zM73 5h1v1h-1zM77 5h1v1h-1zM73 6h5v1h-5zM73 7h1v1h-1zM74 8h3v1h-3zM84 4h4v1h-4zM83 5h1v1h-1zM87 5h1v1h-1zM83 6h1v1h-1zM87 6h1v1h-1zM84 7h4v1h-4zM87 8h1v1h-1zM84 9h3v1h-3zM90 4h3v1h-3zM93 5h1v1h-1zM90 6h4v1h-4zM89 7h1v1h-1zM93 7h1v1h-1zM90 8h4v1h-4zM95 4h2v1h-2zM98 4h1v1h-1zM95 5h1v1h-1zM97 5h1v1h-1zM99 5h1v1h-1zM95 6h1v1h-1zM97 6h1v1h-1zM99 6h1v1h-1zM95 7h1v1h-1zM99 7h1v1h-1zM95 8h1v1h-1zM99 8h1v1h-1zM102 4h3v1h-3zM101 5h1v1h-1zM105 5h1v1h-1zM101 6h5v1h-5zM101 7h1v1h-1zM102 8h3v1h-3z" fill="#3F3F15" transform="translate(1 1)"/><path d="M3 2h1v1h-1zM7 2h1v1h-1zM3 3h2v1h-2zM6 3h2v1h-2zM3 4h1v1h-1zM5 4h1v1h-1zM7 4h1v1h-1zM3 5h1v1h-1zM7 5h1v1h-1zM3 6h1v1h-1zM7 6h1v1h-1zM3 7h1v1h-1zM7 7h1v1h-1zM3 8h1v1h-1zM7 8h1v1h-1zM10 4h3v1h-3zM13 5h1v1h-1zM10 6h4v1h-4zM9 7h1v1h-1zM13 7h1v1h-1zM10 8h4v1h-4zM15 4h4v1h-4zM15 5h1v1h-1zM19 5h1v1h-1zM15 6h1v1h-1zM19 6h1v1h-1zM15 7h1v1h-1zM19 7h1v1h-1zM15 8h1v1h-1zM19 8h1v1h-1zM21 2h1v1h-1zM21 4h1v1h-1zM21 5h1v1h-1zM21 6h1v1h-1zM21 7h1v1h-1zM21 8h1v1h-1zM24 4h4v1h-4zM23 5h1v1h-1zM24 6h3v1h-3zM27 7h1v1h-1zM23 8h4v1h-4zM29 2h1v1h-1zM29 3h1v1h-1zM29 4h4v1h-4zM29 5h1v1h-1zM33 5h1v1h-1zM29 6h1v1h-1zM33 6h1v1h-1zM29 7h1v1h-1zM33 7h1v1h-1zM29 8h1v1h-1zM33 8h1v1h-1zM39 2h1v1h-1zM39 3h1v1h-1zM39 4h1v1h-1zM39 5h1v1h-1zM39 6h1v1h-1zM39 7h1v1h-1zM40 8h1v1h-1zM43 4h3v1h-3zM42 5h1v1h-1zM46 5h1v1h-1zM42 6h5v1h-5zM42 7h1v1h-1zM43 8h3v1h-3zM50 2h2v1h-2zM49 3h1v1h-1zM48 4h3v1h-3zM49 5h1v1h-1zM49 6h1v1h-1zM49 7h1v1h-1zM49 8h1v1h-1zM54 2h1v1h-1zM54 3h1v1h-1zM53 4h4v1h-4zM54 5h1v1h-1zM54 6h1v1h-1zM54 7h1v1h-1zM55 8h2v1h-2zM63 2h1v1h-1zM63 3h1v1h-1zM62 4h4v1h-4zM63 5h1v1h-1zM63 6h1v1h-1zM63 7h1v1h-1zM64 8h2v1h-2zM67 2h1v1h-1zM67 3h1v1h-1zM67 4h4v1h-4zM67 5h1v1h-1zM71 5h1v1h-1zM67 6h1v1h-1zM71 6h1v1h-1zM67 7h1v1h-1zM71 7h1v1h-1zM67 8h1v1h-1zM71 8h1v1h-1zM74 4h3v1h-3zM73 5h1v1h-1zM77 5h1v1h-1zM73 6h5v1h-5zM73 7h1v1h-1zM74 8h3v1h-3zM84 4h4v1h-4zM83 5h1v1h-1zM87 5h1v1h-1zM83 6h1v1h-1zM87 6h1v1h-1zM84 7h4v1h-4zM87 8h1v1h-1zM84 9h3v1h-3zM90 4h3v1h-3zM93 5h1v1h-1zM90 6h4v1h-4zM89 7h1v1h-1zM93 7h1v1h-1zM90 8h4v1h-4zM95 4h2v1h-2zM98 4h1v1h-1zM95 5h1v1h-1zM97 5h1v1h-1zM99 5h1v1h-1zM95 6h1v1h-1zM97 6h1v1h-1zM99 6h1v1h-1zM95 7h1v1h-1zM99 7h1v1h-1zM95 8h1v1h-1zM99 8h1v1h-1zM102 4h3v1h-3zM101 5h1v1h-1zM105 5h1v1h-1zM101 6h5v1h-5zM101 7h1v1h-1zM102 8h3v1h-3z" fill="#FFFF55"/></g></svg>
